<svg xmlns="http://www.w3.org/2000/svg" xmlns:svg="http://www.w3.org/2000/svg" xmlns:xlink="http://www.w3.org/1999/xlink" id="Layer_1" width="100%" height="100%" x="0" y="0" enable-background="new 0 0 117.3 117.3" version="1.1" viewBox="0 0 117.3 117.3" xml:space="preserve"><metadata id="metadata40"/><defs id="defs38"><linearGradient id="linearGradient3129" x1="58.666" x2="58.666" y1="117.332" y2="0" gradientUnits="userSpaceOnUse" xlink:href="#SVGID_1_"/><linearGradient id="SVGID_1_" x1="58.666" x2="58.666" y1="117.332" y2="0" gradientUnits="userSpaceOnUse"><stop id="stop6" offset="0" style="stop-color:#0882c8"/><stop id="stop8" offset="1" style="stop-color:#26b6db"/></linearGradient></defs><circle id="circle14" cx="58.7" cy="58.5" r="43.7" stroke-miterlimit="10" style="fill:none;stroke:#fff;stroke-width:7.99999979;stroke-miterlimit:10;stroke-dasharray:none"/><path style="fill:#fff" id="path18" d="m 93.733343,50.633305 c 6.266651,2.133328 13.066637,-1.199997 15.199967,-7.466648 2.13332,-6.266651 -1.2,-13.066634 -7.46665,-15.199962 -6.266654,-2.133328 -13.066637,1.199997 -15.199965,7.466648 -2.133328,6.266651 1.199997,13.066634 7.466648,15.199962 z"/><line style="fill:none;stroke:#fff;stroke-width:7.99999979;stroke-miterlimit:10;stroke-dasharray:none" id="line20" x1="97.6" x2="67.5" y1="39.4" y2="64.4" stroke-miterlimit="10"/><path style="fill:#fff" id="path24" d="m 74.60003,90.733336 c -0.533332,6.533317 4.266656,12.399974 10.933306,13.066634 6.66665,0.53333 12.399969,-4.266656 13.066634,-10.933306 C 99.133302,86.333347 94.333314,80.466695 87.666664,79.80003 81.000014,79.266698 75.133362,84.066686 74.60003,90.733336 z"/><line style="fill:none;stroke:#fff;stroke-width:7.99999979;stroke-miterlimit:10;stroke-dasharray:none" id="line26" x1="86.5" x2="67.5" y1="91.8" y2="64.4" stroke-miterlimit="10"/><path id="path28" d="m 57.483358,70.91665 c 3.599991,5.599986 11.066639,7.199982 16.533292,3.599991 C 79.616636,70.91665 81.216633,63.450002 77.616641,57.983349 74.01665,52.383363 66.550003,50.783367 61.08335,54.383358 55.483364,57.850016 53.883367,65.316664 57.483359,70.91665 z" style="fill:#fff"/><path style="fill:#fff" id="path32" d="M 22.733318,58.833359 C 16.999999,55.500034 9.666684,57.366696 6.333359,62.966682 c -3.333325,5.733319 -1.466663,13.066634 4.133323,16.399959 5.733319,3.333325 13.066634,1.466663 16.399959,-4.133323 3.333325,-5.599986 1.466663,-12.933301 -4.133323,-16.399959 z"/><line style="fill:none;stroke:#fff;stroke-width:7.99999979;stroke-miterlimit:10;stroke-dasharray:none" id="line34" x1="16.6" x2="67.5" y1="69.1" y2="64.4" stroke-miterlimit="10"/></svg>